<?xml version="1.0" encoding="utf-8"?>
<!-- Generator: Adobe Illustrator 19.2.1, SVG Export Plug-In . SVG Version: 6.00 Build 0)  -->
<svg version="1.1" id="Layer_1" xmlns="http://www.w3.org/2000/svg" xmlns:xlink="http://www.w3.org/1999/xlink" x="0px" y="0px"
	 viewBox="0 0 100 50" style="enable-background:new 0 0 100 50;" xml:space="preserve">
<style type="text/css">
	.st0{fill:#0E6E3F;}
</style>
<g>
	<path class="st0" d="M40.2,28.4c0.3,0.1,0.8,0.5,0.9,0.9c-2.1,2.4-4,4.6-5.9,4.6c-1.8,0-2-1.7-1.3-3.6l0.9-2.5h-3.4
		c-2.5,3.3-5.2,6.1-8.7,6.1c-5.2,0-7.7-5.2-4.8-10.2c2.7-4.7,9-5.1,11-0.6l-2,0.8c-1.2-2.9-4.9-2.8-7.1,0.9c-2,3.3-0.9,7,2.9,7
		c6.4,0,12.6-16.9,18.1-15.1L36,31c-0.3,1-0.3,1.2,0.1,1.2c0.5,0,2.1-1.5,3.9-3.6L40.2,28.4z M32.4,26.6h2.9l2.5-7.1
		C36,21.4,34.2,24,32.4,26.6z"/>
	<path class="st0" d="M46.5,21.9c0.5-0.3,1-0.6,1.6-0.6c1.4,0,2.3,1,2.3,2.2c0,0.8-0.3,1.8-0.9,2.9l-2.4,4.1c1.2,0,2.6-0.6,3.8-1.8
		l0.2-0.2c0.3,0.1,0.8,0.5,0.9,0.9c-1.3,1.5-3.6,2.4-5.1,2.4c-0.2,0-0.4,0-0.6,0c-1.2,1.6-2.9,2.3-4.2,2.3c-1.6,0-2.9-1-2.9-2.7
		c0-0.8,0.3-1.7,0.9-2.8l7.1-12.2h2.5L46.5,21.9z M44.3,31.1c-0.9-0.6-1.4-1.5-1.6-2.6L41.8,30c-0.3,0.5-0.4,0.9-0.4,1.3
		c0,0.6,0.5,1,1,1C43,32.3,43.8,31.9,44.3,31.1z M45,29.8l2.5-4.4c0.3-0.6,0.5-1.1,0.5-1.5c0-0.7-0.4-1.1-0.9-1.1
		c-1.4,0-3.1,2.9-3.1,4.7C44,28.6,44.4,29.4,45,29.8z"/>
	<path class="st0" d="M57.2,31.7C53.9,36,47.8,34,51,28.6l1.1-1.8l1.2-2.1c1.4-2.5,2.9-3.3,4.8-3.3c2.4,0,3.7,2.5,2.2,5.1L58,30.5
		c1.2,0,2.6-0.6,3.8-1.8l0.2-0.2c0.3,0.1,0.8,0.5,0.9,0.9c-1.3,1.5-3.6,2.4-5.1,2.4H57.2z M56.5,28.6h0.1l1.8-3.1
		c1.5-2.6-0.9-3.8-2.6-0.8l-1.2,2L52.7,30c-1.5,2.6,1.4,3,2.5,1l0,0c-0.1-0.2-0.2-0.5-0.2-0.8C55,29.3,55.7,28.6,56.5,28.6z"/>
	<path class="st0" d="M73.7,28.4c0.3,0.1,0.8,0.5,0.9,0.9c-2.1,2.4-4.4,4.6-6.5,4.6c-1.6,0-2.4-1.1-2.1-2.4
		c-1.2,1.2-2.7,2.4-4.1,2.4c-1.7,0-2.2-1.6-1-3.8l4.9-8.5h2.5l-4.9,8.5c-0.3,0.5-0.9,1.5-0.3,1.7c0.5,0.2,1.9-0.7,3.8-2.5l4.4-7.8
		H74L68.6,31c-0.6,1-0.3,1.4,0.3,1.4c1.1,0,2.9-1.7,4.7-3.7L73.7,28.4z"/>
	<path class="st0" d="M76.1,20.4h2.3l2.4-4.1h2.5l-2.4,4.1h2.1l-0.7,1.2h-2L74.8,31c-0.6,1-0.3,1.4,0.3,1.4c1.1,0,2.9-1.7,4.7-3.7
		l0.2-0.2c0.3,0.1,0.8,0.5,0.9,0.9c-2.1,2.4-4.4,4.6-6.5,4.6c-2,0-2.8-1.7-1.7-3.6l5-8.7h-2.3L76.1,20.4z"/>
</g>
</svg>
