<?xml version="1.0" encoding="utf-8"?>
<!-- Generator: Adobe Illustrator 19.2.1, SVG Export Plug-In . SVG Version: 6.00 Build 0)  -->
<svg version="1.1" id="Layer_1" xmlns="http://www.w3.org/2000/svg" xmlns:xlink="http://www.w3.org/1999/xlink" x="0px" y="0px"
	 viewBox="0 0 100 50" style="enable-background:new 0 0 100 50;" xml:space="preserve">
<style type="text/css">
	.st0{fill:#0E6E3F;}
</style>
<g>
	<path class="st0" d="M19,18.5c1.1-2,2.8-2.9,4.1-2.9c1.8,0,3.3,1.5,3.3,3.7c0,1-0.3,2.1-1,3.4c-2,3.4-5,4.8-7.7,4.8
		c-0.5,0-1,0-1.4-0.1l-0.7,1.2c-1.5,2.5-0.5,4.2,1.2,4.2c2.5,0,4.7-1.7,6.5-3.7l0.2-0.2c0.4,0.1,0.8,0.5,0.9,0.9
		c-2.1,2.4-4.5,4.6-8.2,4.6c-3.5,0-4.6-3.4-2.8-6.4l0.7-1.3c-2-1.1-3.1-3-3.1-5c0-1.7,0.8-3.4,2.6-4.7l0.8,1.5
		c-1.1,0.8-1.6,2-1.6,3.1c0,1.4,0.8,2.8,2.2,3.6L19,18.5z M17.7,25.8c3.9,0,6.7-4.2,6.7-6.5c0-0.9-0.4-1.5-1.4-1.5
		c-0.7,0-1.5,0.6-2.3,1.8l-3.6,6.2H17.7z"/>
	<path class="st0" d="M29.7,32.1c-3.4,4.2-9.4,2.3-6.2-3.1l1.1-1.8l1.2-2.1c1.4-2.5,2.9-3.3,4.8-3.3c2.4,0,3.7,2.5,2.2,5.1l-2.4,4.1
		c1.2,0,2.6-0.6,3.8-1.8l0.2-0.2c0.3,0.1,0.8,0.5,0.9,0.9c-1.3,1.5-3.6,2.4-5.1,2.4H29.7z M28.9,29h0.1l1.8-3.1
		c1.5-2.6-0.9-3.8-2.6-0.8l-1.2,2l-1.9,3.3c-1.5,2.6,1.4,3,2.5,1l0,0c-0.1-0.2-0.2-0.5-0.2-0.8C27.5,29.7,28.1,29,28.9,29z"/>
	<path class="st0" d="M46.2,28.9c0.3,0.1,0.8,0.5,0.9,0.9c-2.1,2.4-4.4,4.6-6.5,4.6c-2,0-2.8-1.7-1.7-3.6l3.2-5.6
		c1.1-1.8-0.6-2.5-4.4,2.3l-3.8,6.6h-2.5l6.9-12h2.5l-0.9,1.6c1.2-1.3,2.4-1.9,3.5-1.9c1.4,0,2.4,1.4,1.3,3.3l-3.6,6.3
		c-0.6,1-0.3,1.4,0.3,1.4c1.1,0,2.9-1.7,4.7-3.7L46.2,28.9z"/>
	<path class="st0" d="M48.5,20.9h2.3l2.4-4.1h2.5l-2.4,4.1h2.1l-0.7,1.2h-2l-5.4,9.3c-0.6,1-0.3,1.4,0.3,1.4c1.1,0,2.9-1.7,4.7-3.7
		l0.2-0.2c0.3,0.1,0.8,0.5,0.9,0.9c-2.1,2.4-4.4,4.6-6.5,4.6c-2,0-2.8-1.7-1.7-3.6l5-8.7h-2.3L48.5,20.9z"/>
	<path class="st0" d="M64.1,28.9c0.3,0.1,0.8,0.5,0.9,0.9c-2.1,2.4-4.4,4.6-6.5,4.6c-1.3,0-2-0.7-2.2-1.6c-1.2,1-2.4,1.6-3.5,1.6
		c-2,0-2.8-1.7-1.7-3.6l3.5-6c1.1-1.8,2.9-2.9,4.3-2.9c1.6,0,2.7,1.5,2.6,2.5H63l-4,7.1c-0.6,1-0.3,1.4,0.3,1.4
		c1.1,0,2.9-1.7,4.7-3.7L64.1,28.9z M53.4,31.4c-0.6,1-0.3,1.4,0.3,1.4c1,0,2.5-1.1,4-3.5l1.9-3.4c1.2-2.3-1.4-2.9-2.8-0.5
		L53.4,31.4z"/>
	<path class="st0" d="M66.1,29.8c-1.2,2-0.2,3,1.3,3c1.8,0,4.1-1.7,5.9-3.7l0.2-0.2c0.3,0.1,0.8,0.5,0.9,0.9
		c-2.1,2.4-4.9,4.6-7.7,4.6c-3,0-4.3-2.4-2.7-5.1l2.6-4.5c1.1-1.8,2.7-2.9,4.7-2.9c2,0,3.3,1.7,2,4l-0.4,0.6h-2l0.4-0.6
		c1.5-2.6-1.1-3-2.5-0.5L66.1,29.8z"/>
	<path class="st0" d="M75.8,20.9H78l2.4-4.1h2.5l-2.4,4.1h2.1l-0.7,1.2h-2l-5.4,9.3c-0.6,1-0.3,1.4,0.3,1.4c1.1,0,2.9-1.7,4.7-3.7
		l0.2-0.2c0.3,0.1,0.8,0.5,0.9,0.9c-2.1,2.4-4.4,4.6-6.5,4.6c-2,0-2.8-1.7-1.7-3.6l5-8.7H75L75.8,20.9z"/>
	<path class="st0" d="M78.5,32.3l1.6-0.8c0,0,0.3,0.9,1.2,0.9c2.4,0,1.8-4.7,2.8-7.2c-0.9,1.2-2.1,2.9-3.6,4.6
		c-0.4-0.2-0.7-0.6-0.9-0.9c2.3-2.6,4.5-5.9,5.5-7.3l1.9,1c-1.5,3.2-1.4,6.8-2.2,9.2c1-0.7,2.1-1.6,3-2.7l0.2-0.2
		c0.4,0.1,0.8,0.5,0.9,0.9c-1.9,2.2-4.4,4.2-6.9,4.5c0,0,0,0-0.1,0c-0.2,0-0.5,0-0.7,0C79,34.3,78.5,32.3,78.5,32.3z"/>
</g>
</svg>
