<?xml version="1.0" encoding="utf-8"?>
<!-- Generator: Adobe Illustrator 19.2.1, SVG Export Plug-In . SVG Version: 6.00 Build 0)  -->
<svg version="1.1" id="Layer_1" xmlns="http://www.w3.org/2000/svg" xmlns:xlink="http://www.w3.org/1999/xlink" x="0px" y="0px"
	 viewBox="0 0 100 50" style="enable-background:new 0 0 100 50;" xml:space="preserve">
<style type="text/css">
	.st0{fill:#0E6E3F;}
</style>
<g>
	<path class="st0" d="M34.8,33.4l4.5-7.8h-3.7l-1.6,2.8c-7.4,12.8-20.3,4.8-15.7-3c1.7-2.9,4.2-3,4.2-3l0.5,1.8c0,0-1.8,0.5-2.8,2.2
		c-3.2,5.6,6.2,10.9,11.9,0.9l5.1-8.8c-2.7,1.4-7,1.4-8.1,3.4c-1.2,2.1,0.9,3,0.9,3L29,26.6c-1.7-0.6-3.6-2.7-2-5.5
		c2-3.6,7.5-2.3,11.9-5.8l1.3,2.2l-4,6.9H40l3.6-6.1c2.9-5,6.9-3.2,7.5-1.2l-1.7,0.9c-0.7-1.6-2.4-1.4-3.7,1l-8.3,14.3H34.8z"/>
	<path class="st0" d="M72.5,28.2c0.3,0.1,0.8,0.5,0.9,0.9c-2.1,2.4-4.4,4.6-6.5,4.6c-2,0-2.8-1.7-1.7-3.6l3.2-5.6
		c1.2-2.1-1-2.6-5.7,4.1l-2.8,4.9h-2.5l5.2-9c1.2-2-1-2.6-5.6,3.9l-2.9,5h-2.5l3.1-5.4c-1,0.4-2,0.6-3.1,0.6l-1.1,2
		c-1.3,2.2-3.2,3.2-4.9,3.2c-1.6,0-2.9-1-2.9-2.7c0-0.8,0.3-1.7,0.9-2.8l1.8-3.1h0.8c0-0.2,0-0.4,0-0.6c0-1.5,1.4-3.8,3.8-3.8
		c3.6,0,4.2,3.3,2.6,6.2l-0.1,0.2c1.4-0.1,2.8-0.7,3.8-1.9l0.1-0.1l2.2-3.7h2.5L59.4,24c1.6-2,3-2.8,4.3-2.8c1.3,0,2.3,1.3,1.5,3
		c1.7-2.1,3.1-3,4.5-3c1.4,0,2.4,1.4,1.3,3.3l-3.6,6.3c-0.6,1-0.3,1.4,0.3,1.4c1.1,0,2.9-1.7,4.7-3.7L72.5,28.2z M45.3,29.8
		c-0.3,0.5-0.4,0.9-0.4,1.3c0,0.6,0.5,1,1,1c0.6,0,1.5-0.4,2-1.3l1.4-2.5c-0.9-0.3-1.8-0.7-2.3-1.4L45.3,29.8z M50.6,26
		c0.9-1.6,0.6-3.3-0.8-3.4c-0.9,0-1.5,0.9-1.5,1.9c0,1.2,0.7,2.1,1.8,2.5L50.6,26z"/>
	<path class="st0" d="M74.7,28.7l-0.2,0.4c-1.2,2-0.2,3,1.3,3c1.8,0,4.1-1.7,5.9-3.7l0.2-0.2c0.3,0.1,0.8,0.5,0.9,0.9
		c-2.1,2.4-4.9,4.6-7.7,4.6c-3,0-4.3-2.4-2.7-5.1l2.6-4.5c1.1-1.8,2.7-2.9,4.7-2.9c2,0,3.3,1.7,2,4l-0.4,0.6
		C79.4,29.1,76.3,29.4,74.7,28.7z M75.5,27.5c0.9,0.3,2.5,0.4,3.7-1.7l0.4-0.6c1.5-2.6-1.1-3-2.5-0.5L75.5,27.5z"/>
</g>
</svg>
