<?xml version="1.0" encoding="utf-8"?>
<!-- Generator: Adobe Illustrator 19.2.1, SVG Export Plug-In . SVG Version: 6.00 Build 0)  -->
<svg version="1.1" id="Layer_1" xmlns="http://www.w3.org/2000/svg" xmlns:xlink="http://www.w3.org/1999/xlink" x="0px" y="0px"
	 viewBox="0 0 100 50" style="enable-background:new 0 0 100 50;" xml:space="preserve">
<style type="text/css">
	.st0{fill:#0E6E3F;}
</style>
<g>
	<path class="st0" d="M17.7,35.2l9.7-16.8h2.5l-4.5,7.8c1.6,1.8,5.2,1.7,7.1-1.7c4.4-7.6-5.4-11.5-9.1-5c-0.9,1.6-1.1,2.9-1.1,2.9
		l-1.7-0.3c0,0,0.2-1.8,1.2-3.6c4.9-8.6,18-2.5,12.8,6.6c-2.8,4.8-7.6,4.4-9.8,2.1l-4.6,7.9H17.7z"/>
	<path class="st0" d="M45,30c0.3,0.1,0.8,0.5,0.9,0.9c-2.1,2.4-4.4,4.6-6.5,4.6c-2,0-2.8-1.7-1.7-3.6l3.2-5.6
		c1.1-1.8-0.6-2.5-4.5,2.4l-3.8,6.6h-2.5l10-17.3h2.5l-4,6.9c1.2-1.3,2.4-1.9,3.5-1.9c1.4,0,2.4,1.4,1.3,3.3l-3.6,6.3
		c-0.6,1-0.3,1.4,0.3,1.4c1.1,0,2.9-1.7,4.7-3.7L45,30z"/>
	<path class="st0" d="M51.2,33.3c-3.4,4.2-9.4,2.3-6.2-3.1l1.1-1.8l1.2-2.1c1.4-2.5,2.9-3.3,4.8-3.3c2.4,0,3.7,2.5,2.2,5.1L52,32
		c1.2,0,2.6-0.6,3.8-1.8l0.2-0.2c0.3,0.1,0.8,0.5,0.9,0.9c-1.3,1.5-3.6,2.4-5.1,2.4H51.2z M50.5,30.1h0.1l1.8-3.1
		c1.5-2.6-0.9-3.8-2.6-0.8l-1.2,2l-1.9,3.3c-1.5,2.6,1.4,3,2.5,1l0,0c-0.1-0.2-0.2-0.5-0.2-0.8C49,30.8,49.6,30.1,50.5,30.1z"/>
	<path class="st0" d="M58.3,22h2.3l2.4-4.1h2.5L63,22h2.1l-0.7,1.2h-2L57,32.5c-0.6,1-0.3,1.4,0.3,1.4c1.1,0,2.9-1.7,4.7-3.7
		l0.2-0.2c0.3,0.1,0.8,0.5,0.9,0.9c-2.1,2.4-4.4,4.6-6.5,4.6c-2,0-2.8-1.7-1.7-3.6l5-8.7h-2.3L58.3,22z"/>
	<path class="st0" d="M68.2,33.3c-3.4,4.2-9.4,2.3-6.2-3.1l1.1-1.8l1.2-2.1c1.4-2.5,2.9-3.3,4.8-3.3c2.4,0,3.7,2.5,2.2,5.1L69,32
		c1.2,0,2.6-0.6,3.8-1.8l0.2-0.2c0.3,0.1,0.8,0.5,0.9,0.9c-1.3,1.5-3.6,2.4-5.1,2.4H68.2z M67.5,30.1h0.1l1.8-3.1
		c1.5-2.6-0.9-3.8-2.6-0.8l-1.2,2l-1.9,3.3c-1.5,2.6,1.4,3,2.5,1l0,0c-0.1-0.2-0.2-0.5-0.2-0.8C66,30.8,66.7,30.1,67.5,30.1z"/>
	<path class="st0" d="M71.9,33.4l1.6-0.8c0,0,0.3,0.9,1.2,0.9c2.4,0,1.8-4.7,2.8-7.2c-0.9,1.2-2.1,2.9-3.6,4.6
		c-0.4-0.2-0.7-0.6-0.9-0.9c2.3-2.6,4.5-5.9,5.5-7.3l1.9,1c-1.5,3.2-1.4,6.8-2.2,9.2c1-0.7,2.1-1.6,3-2.7l0.2-0.2
		c0.4,0.1,0.8,0.5,0.9,0.9c-1.9,2.2-4.4,4.2-6.9,4.5c0,0,0,0-0.1,0c-0.2,0-0.5,0-0.7,0C72.3,35.4,71.9,33.4,71.9,33.4z"/>
</g>
</svg>
