<?xml version="1.0" encoding="utf-8"?>
<!-- Generator: Adobe Illustrator 19.2.1, SVG Export Plug-In . SVG Version: 6.00 Build 0)  -->
<svg version="1.1" id="Layer_1" xmlns="http://www.w3.org/2000/svg" xmlns:xlink="http://www.w3.org/1999/xlink" x="0px" y="0px"
	 viewBox="0 0 100 50" style="enable-background:new 0 0 100 50;" xml:space="preserve">
<style type="text/css">
	.st0{fill:#0E6E3F;}
</style>
<g>
	<path class="st0" d="M21.6,31.5c1,0.7,2.2,0.9,3.5,0.6c-1.4-3.7,0.6-8.6,5.6-8.6c1.3,0,2.5,0.5,3.3,1.3l3.5-3.5
		c0.3-4.8,1.4-7.7,4.5-7.7c2.4,0,3.1,2.5,0.6,4.9l-2.9,2.8c-0.1,1.2-0.1,2.6-0.1,4.2c0,5.8-2.8,10.6-8,10.6c-2.8,0-4.8-1.2-5.9-2.7
		c-1.8,0.5-3.6,0.2-5-1.1L21.6,31.5z M27.1,31.4c0.6-0.3,1.1-0.7,1.6-1.2l4.2-4.1c-0.6-0.5-1.3-0.7-2.1-0.7
		C27.5,25.3,26.1,28.8,27.1,31.4z M27.9,32.7c0.8,0.9,2.1,1.6,3.8,1.6c3.8,0,5.7-3.7,5.7-8.6v-1.8L35,26.2c0.9,1.8,0.7,4-1,5.4
		l-1-1.1c1.1-1,1.2-2.2,0.8-3.2L30,31.1C29.3,31.7,28.6,32.3,27.9,32.7z M40,19l1-1c1.6-1.5,1.4-2.4,0.7-2.4
		C40.9,15.6,40.4,16.7,40,19z"/>
	<path class="st0" d="M44.1,20.5h2.3l2.4-4.1h2.5l-2.4,4.1h2.1l-0.7,1.2h-2l-5.4,9.3c-0.6,1-0.3,1.4,0.3,1.4c1.1,0,2.9-1.7,4.7-3.7
		l0.2-0.2c0.3,0.1,0.8,0.5,0.9,0.9c-2.1,2.4-4.4,4.6-6.5,4.6c-2,0-2.8-1.7-1.7-3.6l5-8.7h-2.3L44.1,20.5z"/>
	<path class="st0" d="M54,31.8c-3.4,4.2-9.4,2.3-6.2-3.1l1.1-1.8l1.2-2.1c1.4-2.5,2.9-3.3,4.8-3.3c2.4,0,3.7,2.5,2.2,5.1l-2.4,4.1
		c1.2,0,2.6-0.6,3.8-1.8l0.2-0.2c0.3,0.1,0.8,0.5,0.9,0.9c-1.3,1.5-3.6,2.4-5.1,2.4H54z M53.3,28.7h0.1l1.8-3.1
		c1.5-2.6-0.9-3.8-2.6-0.8l-1.2,2l-1.9,3.3c-1.5,2.6,1.4,3,2.5,1l0,0c-0.1-0.2-0.2-0.5-0.2-0.8C51.8,29.3,52.5,28.7,53.3,28.7z"/>
	<path class="st0" d="M64.3,25.8c0.3-0.5,0.2-1-0.1-1.4L63.8,24c-2,2.7-2.9,4-4.1,5.4c-0.4-0.2-0.7-0.6-0.9-0.9
		c1.6-1.9,3.1-4,4.2-5.6l-0.2-0.3c-0.9-1.2-0.8-2.6,0.6-3.8l1.3,1.4c-0.5,0.5-0.5,1-0.1,1.4l1.4,1.7c0.8,1,1.2,1.9,0.4,3.4l-2.5,4.4
		c-0.6,1-0.3,1.4,0.3,1.4c1.1,0,2.9-1.7,4.7-3.7l0.2-0.2c0.3,0.1,0.8,0.5,0.9,0.9c-2.1,2.4-4.4,4.6-6.5,4.6c-2,0-2.8-1.7-1.7-3.6
		L64.3,25.8z"/>
	<path class="st0" d="M71.1,29l-0.2,0.4c-1.2,2-0.2,3,1.3,3c1.8,0,4.1-1.7,5.9-3.7l0.2-0.2c0.3,0.1,0.8,0.5,0.9,0.9
		c-2.1,2.4-4.9,4.6-7.7,4.6c-3,0-4.3-2.4-2.7-5.1l2.6-4.5c1.1-1.8,2.7-2.9,4.7-2.9c2,0,3.3,1.7,2,4l-0.4,0.6
		C75.8,29.4,72.8,29.7,71.1,29z M71.9,27.8c0.9,0.3,2.5,0.4,3.7-1.7l0.4-0.6c1.5-2.6-1.1-3-2.5-0.5L71.9,27.8z"/>
</g>
</svg>
