<?xml version="1.0" encoding="utf-8"?>
<!-- Generator: Adobe Illustrator 19.2.1, SVG Export Plug-In . SVG Version: 6.00 Build 0)  -->
<svg version="1.1" id="Layer_1" xmlns="http://www.w3.org/2000/svg" xmlns:xlink="http://www.w3.org/1999/xlink" x="0px" y="0px"
	 viewBox="0 0 600 300" style="enable-background:new 0 0 600 300;" xml:space="preserve">
<style type="text/css">
	.st0{fill:#010101;}
	.st1{fill:none;stroke:#FFFFFF;stroke-miterlimit:10;}
	.st2{fill:#FFFFFF;}
	.st3{fill:none;stroke:#FFFFFF;stroke-width:5;stroke-miterlimit:10;}
</style>
<g>
	<ellipse class="st0" cx="300" cy="150" rx="254.4" ry="134.7"/>
	<g>
		<g>
			<line class="st1" x1="341.6" y1="70.7" x2="380.7" y2="59.7"/>
			<line class="st1" x1="381.9" y1="94.8" x2="342.8" y2="83.8"/>
			<line class="st1" x1="341.7" y1="77" x2="402.5" y2="77"/>
		</g>
		<g>
			<line class="st1" x1="259" y1="70.5" x2="219.9" y2="59.5"/>
			<line class="st1" x1="218.7" y1="94.5" x2="257.8" y2="83.5"/>
			<line class="st1" x1="258.9" y1="76.8" x2="198.1" y2="76.8"/>
		</g>
		<g>
			<path class="st2" d="M327,62v-1.2c-1,10.8-8.5,9.4-8.5,9.4s-5.4-0.2-4.6-7.2l-0.7-2.2c0,0-0.3,7.5-6.3,7c0,0-8.5-1.8-8.6-12.5
				c0,0-0.3,13-7.8,13c0,0-5,0.8-6.2-5.5l-2-1.8c0,0,1.4,8.1-4.6,9.1c0,0-7.7,3-11.2-9H266l6.9,24.5c0,0,27.3-7.6,49.6,0.9l5.3-24"
				/>
			<circle class="st2" cx="298.6" cy="52.4" r="3.6"/>
			<circle class="st2" cx="328.1" cy="59.7" r="3.6"/>
			<circle class="st2" cx="266.6" cy="59.1" r="3.6"/>
			<circle class="st2" cx="283.6" cy="59.7" r="3.1"/>
			<circle class="st2" cx="314.1" cy="59.7" r="3.1"/>
			<ellipse class="st2" cx="297.1" cy="89" rx="22.5" ry="3.4"/>
		</g>
	</g>
	<g>
		<path class="st2" d="M249.7,100.1h-0.1c-0.4,0-0.9,0.3-1.1,0.6c0.5,0.1,0.9,0.4,0.9,0.9c0,0.7-0.5,0.9-0.9,0.9c-0.5,0-1-0.3-1-1
			c0-1.2,1.2-2.1,2.2-2.1h0.1L249.7,100.1z M252.3,100.1h-0.1c-0.4,0-0.9,0.3-1.1,0.6c0.5,0.1,0.9,0.4,0.9,0.9
			c0,0.7-0.5,0.9-0.9,0.9c-0.5,0-1-0.3-1-1c0-1.2,1.2-2.1,2.2-2.1h0.1L252.3,100.1z"/>
		<path class="st2" d="M255.3,108.3c-3-0.3-3.3-3.7-2-6.1c4.4-7.6,13.5-3.3,8.9,4.7c-1,1.7-2.5,3.3-4.2,4.4c1.8,1.6,3.6,3.5,5.4,3.5
			c0.9,0,1.7-0.2,2.5-1l0.9,0.9c0,0-1,1.5-3.4,1.5c-2.5,0-4.7-2.5-6.6-4.3c-0.9,0.4-1.9,0.6-2.9,0.6c-1.7,0-2.5-0.9-2.5-1.8
			s0.8-1.8,2.4-1.8c1,0,2,0.6,3,1.3c1.6-0.9,2.9-2.5,3.9-4c3.9-6.8-2.7-8.7-5.6-3.8c-1.8,3-0.8,4.4,0.4,4.8L255.3,108.3z
			 M255.5,110.8c-0.6-0.4-1.2-0.7-1.8-0.7c-0.6,0-0.9,0.3-0.9,0.5c0,0.3,0.3,0.5,1,0.5C254.3,111.2,254.9,111,255.5,110.8z"/>
		<path class="st2" d="M272.2,108c0.2,0.1,0.6,0.4,0.7,0.6c-1.5,1.7-3.2,3.3-4.7,3.3c-1.1,0-1.7-0.8-1.5-1.7c-0.9,0.8-2,1.7-2.9,1.7
			c-1.2,0-1.6-1.1-0.7-2.7l3.5-6.1h1.8l-3.5,6.1c-0.2,0.4-0.7,1.1-0.2,1.2c0.3,0.2,1.4-0.5,2.8-1.8l3.2-5.6h1.8l-3.8,6.7
			c-0.4,0.7-0.2,1,0.2,1c0.8,0,2.1-1.2,3.3-2.7L272.2,108z"/>
		<path class="st2" d="M273.8,108.4l-0.2,0.3c-0.8,1.4-0.2,2.1,0.9,2.1c1.3,0,2.9-1.2,4.2-2.7l0.1-0.1c0.2,0.1,0.6,0.4,0.7,0.6
			c-1.5,1.7-3.5,3.3-5.5,3.3c-2.1,0-3.1-1.8-2-3.7l1.9-3.2c0.8-1.3,1.9-2.1,3.4-2.1c1.5,0,2.4,1.2,1.4,2.9l-0.3,0.4
			C277.1,108.7,274.9,108.9,273.8,108.4z M274.3,107.5c0.7,0.2,1.8,0.3,2.7-1.2l0.3-0.4c1.1-1.9-0.8-2.2-1.8-0.4L274.3,107.5z"/>
		<path class="st2" d="M280.4,108.4l-0.2,0.3c-0.8,1.4-0.2,2.1,0.9,2.1c1.3,0,2.9-1.2,4.2-2.7l0.1-0.1c0.2,0.1,0.6,0.4,0.7,0.6
			c-1.5,1.7-3.5,3.3-5.5,3.3c-2.1,0-3.1-1.8-2-3.7l1.9-3.2c0.8-1.3,1.9-2.1,3.4-2.1c1.5,0,2.4,1.2,1.4,2.9l-0.3,0.4
			C283.7,108.7,281.6,108.9,280.4,108.4z M280.9,107.5c0.7,0.2,1.8,0.3,2.7-1.2l0.3-0.4c1.1-1.9-0.8-2.2-1.8-0.4L280.9,107.5z"/>
		<path class="st2" d="M294,108c0.2,0.1,0.6,0.4,0.7,0.6c-1.5,1.7-3.2,3.3-4.7,3.3c-1.4,0-2-1.2-1.2-2.5l2.3-4
			c0.8-1.3-0.4-1.8-3.2,1.7l-2.7,4.8h-1.8l5-8.6h1.8l-0.7,1.2c0.9-0.9,1.7-1.3,2.5-1.3c1,0,1.7,1,1,2.3l-2.6,4.5
			c-0.4,0.7-0.2,1,0.2,1c0.8,0,2.1-1.2,3.3-2.7L294,108z"/>
		<path class="st2" d="M303.3,110.4c-2.4,3-6.7,1.6-4.5-2.3l0.8-1.3l0.9-1.5c1-1.8,2.1-2.3,3.5-2.3c1.7,0,2.7,1.8,1.6,3.7l-1.7,2.9
			c0.9,0,1.9-0.4,2.7-1.3l0.1-0.1c0.2,0.1,0.6,0.4,0.7,0.6c-0.9,1.1-2.6,1.7-3.7,1.7H303.3z M302.7,108.1L302.7,108.1l1.4-2.2
			c1.1-1.9-0.6-2.7-1.9-0.6l-0.9,1.5l-1.4,2.4c-1.1,1.9,1,2.1,1.8,0.7l0,0c-0.1-0.2-0.2-0.4-0.2-0.6
			C301.7,108.6,302.2,108.1,302.7,108.1z"/>
		<path class="st2" d="M313.1,108c0.2,0.1,0.6,0.4,0.7,0.6c-2,2.4-4.4,2.9-6.2,3c0.2,0.5,0.2,1.2-0.2,1.8l-1.3,2.4
			c-1.9,3.4-4.7,1.4-3.3-0.9l7.4-12.9c2.3-4.1,6.2-2.9,4.2,0.7l-2.9,5c-0.9,1.6-2.4,2.6-3.6,3.2c1.4-0.1,3.4-0.6,5.2-2.7L313.1,108z
			 M306.4,111.6h-0.2l-2,3.5c-0.7,1.3,0,1.6,0.6,0.5l1.5-2.6C306.7,112.3,306.7,111.8,306.4,111.6z M306.9,110.4
			c1.4-0.6,2.6-2.1,3.4-3.5l2.8-4.8c0.9-1.6-0.4-1.7-1.3,0L306.9,110.4z"/>
		<path class="st2" d="M318.2,111.8l7-12.1h1.8l-3.2,5.6c1.2,1.3,3.7,1.2,5.1-1.2c3.2-5.5-3.8-8.3-6.5-3.6c-0.6,1.1-0.8,2.1-0.8,2.1
			l-1.2-0.2c0,0,0.1-1.3,0.8-2.6c3.5-6.1,13-1.8,9.2,4.8c-2,3.5-5.5,3.2-7,1.5l-3.3,5.7H318.2z"/>
		<path class="st2" d="M333.8,108c0.2,0.1,0.6,0.4,0.7,0.6c-1.5,1.7-3.2,3.3-4.7,3.3c-1.4,0-2-1.2-1.2-2.5l3.6-6.2h1.8l-3.8,6.7
			c-0.4,0.7-0.2,1,0.2,1c0.8,0,2.1-1.2,3.3-2.7L333.8,108z M334.2,100.2c0.6,0,1.1,0.5,1.1,1.1s-0.5,1-1.1,1s-1-0.4-1-1
			S333.6,100.2,334.2,100.2z"/>
		<path class="st2" d="M335.4,108.4l-0.2,0.3c-0.8,1.4-0.2,2.1,0.9,2.1c1.3,0,2.9-1.2,4.2-2.7l0.1-0.1c0.2,0.1,0.6,0.4,0.7,0.6
			c-1.5,1.7-3.5,3.3-5.5,3.3c-2.1,0-3.1-1.8-2-3.7l1.9-3.2c0.8-1.3,1.9-2.1,3.4-2.1c1.5,0,2.4,1.2,1.4,2.9l-0.3,0.4
			C338.7,108.7,336.5,108.9,335.4,108.4z M335.9,107.5c0.7,0.2,1.8,0.3,2.7-1.2l0.3-0.4c1.1-1.9-0.8-2.2-1.8-0.4L335.9,107.5z"/>
		<path class="st2" d="M339.7,110.5l1.1-0.6c0,0,0.2,0.7,0.8,0.7c1.7,0,1.3-3.3,2-5.2c-0.6,0.8-1.5,2.1-2.5,3.3
			c-0.3-0.2-0.5-0.4-0.7-0.6c1.6-1.9,3.2-4.2,4-5.3l1.3,0.7c-1.1,2.3-1,4.9-1.5,6.6c0.7-0.5,1.5-1.2,2.2-1.9l0.1-0.1
			c0.3,0.1,0.6,0.3,0.7,0.6c-1.3,1.6-3.2,3-5,3.3c0,0,0,0-0.1,0c-0.2,0-0.3,0-0.5,0C340,111.9,339.7,110.5,339.7,110.5z"/>
		<path class="st2" d="M348.3,101.8h0.1c0.4,0,0.9-0.3,1.1-0.6c-0.5-0.1-0.9-0.4-0.9-0.9c0-0.7,0.5-0.9,0.9-0.9c0.5,0,1,0.3,1,1
			c0,1.2-1.2,2.1-2.2,2.1h-0.1L348.3,101.8z M350.8,101.8h0.1c0.4,0,0.9-0.3,1.1-0.6c-0.5-0.1-0.9-0.4-0.9-0.9
			c0-0.7,0.5-0.9,0.9-0.9c0.5,0,1,0.3,1,1c0,1.2-1.2,2.1-2.2,2.1h-0.1L350.8,101.8z"/>
	</g>
	<ellipse class="st3" cx="300" cy="150" rx="238.1" ry="119.1"/>
	<g>
		<path class="st2" d="M166.1,176.2l13.4-23.3h-11.2l-4.8,8.4c-22.2,38.4-60.8,14.5-47.1-9.1c5-8.6,12.6-9,12.6-9l1.4,5.5
			c0,0-5.3,1.4-8.3,6.6c-9.7,16.7,18.5,32.7,35.8,2.7l15.2-26.4c-8.1,4.1-20.9,4.3-24.3,10.3c-3.7,6.3,2.8,8.9,2.8,8.9l-2.8,4.8
			c-5-1.9-10.7-8-5.9-16.4c6.1-10.7,22.6-6.8,35.8-17.3l3.8,6.6l-12,20.7h11.2l10.7-18.4c8.8-15.1,20.8-9.6,22.4-3.5l-5,2.7
			c-2.2-4.9-7.1-4.1-11.2,3.1l-24.8,42.9H166.1z"/>
		<path class="st2" d="M279.3,160.5c1,0.4,2.3,1.6,2.8,2.6c-6.2,7.2-13.3,13.8-19.5,13.8c-6,0-8.3-5.1-5.1-10.7l9.7-16.9
			c3.6-6.2-3.1-7.8-17.2,12.2l-8.4,14.7h-7.6l15.5-26.9c3.5-6.1-3-7.7-16.9,11.7l-8.7,15.1h-7.6l9.4-16.3c-3,1.2-6.1,1.8-9.3,1.8
			l-3.4,5.9c-3.9,6.7-9.7,9.7-14.6,9.7c-4.8,0-8.6-2.9-8.6-8c0-2.4,0.8-5.1,2.7-8.4l5.3-9.4h2.4c-0.1-0.6-0.1-1.2-0.1-1.9
			c0-4.6,4.2-11.3,11.4-11.3c10.9,0,12.7,9.9,7.8,18.6l-0.3,0.5c4.1-0.4,8.4-2.2,11.4-5.8l0.3-0.3l6.5-11.2h7.5l-4.5,7.8
			c4.8-6,9-8.5,12.9-8.5c4,0,7,3.8,4.4,9.1c5-6.3,9.4-9.1,13.4-9.1c4.2,0,7.3,4.1,4,9.8L264,168.2c-1.7,3-0.8,4.1,0.9,4.1
			c3.3,0,8.6-5,14-11.2L279.3,160.5z M197.6,165.3c-0.9,1.6-1.3,2.8-1.3,3.9c0,1.9,1.4,2.9,3,2.9c1.9,0,4.4-1.3,5.9-3.9l4.3-7.4
			c-2.8-0.9-5.3-2.2-7-4.2L197.6,165.3z M213.6,153.7c2.8-4.8,1.9-10-2.4-10.2c-2.7-0.1-4.6,2.7-4.6,5.6c0,3.7,2.2,6.2,5.3,7.4
			L213.6,153.7z"/>
		<path class="st2" d="M285.9,162.1l-0.7,1.3c-3.5,6-0.7,8.9,3.9,8.9c5.3,0,12.2-5,17.6-11.2l0.5-0.6c1,0.4,2.3,1.6,2.8,2.6
			c-6.2,7.2-14.6,13.8-23.1,13.8c-8.9,0-12.9-7.3-8.2-15.3l7.8-13.5c3.2-5.5,8-8.6,14-8.6c6.1,0,10,5.2,6,12.1l-1.1,1.9
			C299.8,163.2,290.8,164.1,285.9,162.1z M288.1,158.4c2.8,1,7.6,1.2,11.2-5l1.1-1.9c4.5-7.8-3.2-9-7.5-1.6L288.1,158.4z"/>
		<path class="st2" d="M330.6,169.6c3,2,6.7,2.7,10.6,1.9c-4.2-11.1,1.9-25.7,16.9-25.7c4,0,7.4,1.6,9.9,4l10.6-10.4
			c0.9-14.5,4.2-23.2,13.6-23.2c7.1,0,9.3,7.6,1.8,14.8l-8.6,8.5c-0.2,3.5-0.3,7.7-0.3,12.5c0,17.4-8.3,31.8-24,31.8
			c-8.4,0-14.3-3.5-17.6-8.1c-5.5,1.4-10.9,0.5-15-3.2L330.6,169.6z M347.1,169.2c1.7-1,3.3-2.2,4.9-3.7l12.5-12.3
			c-1.7-1.4-4-2.2-6.4-2.2C348.2,150.9,344,161.4,347.1,169.2z M349.4,173.1c2.4,2.8,6.2,4.7,11.5,4.7c11.4,0,17.2-11.1,17.2-25.9
			v-5.5l-7.3,7.3c2.7,5.3,2.2,12.1-2.9,16.2l-3.1-3.2c3.2-3.1,3.7-6.7,2.5-9.7l-11.4,11.2C353.8,170.2,351.7,171.9,349.4,173.1z
			 M385.9,132.1l3-3c4.8-4.6,4.2-7.2,2-7.2C388.6,121.9,386.9,125,385.9,132.1z"/>
		<path class="st2" d="M409.5,160.5c1,0.4,2.3,1.6,2.8,2.6c-6.2,7.2-13.3,13.8-19.5,13.8c-6,0-8.3-5.1-5.1-10.7l24.2-41.9h7.5
			l-25.2,43.9c-1.7,3-0.8,4.1,0.9,4.1c3.3,0,8.6-5,14-11.2L409.5,160.5z"/>
		<path class="st2" d="M428,160.5c1,0.4,2.3,1.6,2.8,2.6c-6.2,7.2-13.3,13.8-19.5,13.8c-6,0-8.3-5.1-5.1-10.7l15-26.1h7.5l-16.1,28
			c-1.7,3-0.8,4.1,0.9,4.1c3.3,0,8.6-5,14-11.2L428,160.5z M429.6,127.7c2.4,0,4.4,1.9,4.4,4.4s-1.9,4.3-4.4,4.3s-4.3-1.9-4.3-4.3
			S427.2,127.7,429.6,127.7z"/>
		<path class="st2" d="M433.9,163.4c-3.5,6-0.7,8.9,3.9,8.9c5.3,0,12.2-5,17.6-11.2l0.5-0.6c1,0.4,2.3,1.6,2.8,2.6
			c-6.2,7.2-14.6,13.8-23.1,13.8c-8.9,0-12.9-7.3-8.2-15.3l7.8-13.5c3.2-5.5,8-8.6,14-8.6c6.1,0,10,5.2,6,12.1l-1.1,1.9H448l1.1-1.9
			c4.5-7.8-3.2-9-7.5-1.6L433.9,163.4z"/>
		<path class="st2" d="M462.5,162.1l-0.7,1.3c-3.5,6-0.7,8.9,3.9,8.9c5.3,0,12.2-5,17.6-11.2l0.5-0.6c1,0.4,2.3,1.6,2.8,2.6
			c-6.2,7.2-14.6,13.8-23.1,13.8c-8.9,0-12.9-7.3-8.2-15.3l7.8-13.5c3.2-5.5,8-8.6,14-8.6c6.1,0,10,5.2,6,12.1l-1.1,1.9
			C476.4,163.2,467.3,164.1,462.5,162.1z M464.6,158.4c2.8,1,7.6,1.2,11.2-5l1.1-1.9c4.5-7.8-3.2-9-7.5-1.6L464.6,158.4z"/>
	</g>
	<g>
		<path class="st2" d="M237.2,217.5v11.6h-4.3v-28.6h4.9c2.4,0,4.2,0.2,5.4,0.5c1.2,0.3,2.3,1,3.3,1.9c1.6,1.6,2.5,3.6,2.5,6.1
			c0,2.6-0.9,4.7-2.6,6.2c-1.8,1.5-4.1,2.3-7.1,2.3H237.2z M237.2,213.5h1.6c4,0,6-1.5,6-4.6c0-3-2-4.4-6.1-4.4h-1.4V213.5z"/>
		<path class="st2" d="M265.3,200.5v28.6H261v-28.6H265.3z"/>
		<path class="st2" d="M284.8,225.1h13.7v4.1h-20.9l14.1-24.6H280v-4.1h18.9L284.8,225.1z"/>
		<path class="st2" d="M316.1,225.1h13.7v4.1H309l14.1-24.6h-11.8v-4.1h18.9L316.1,225.1z"/>
		<path class="st2" d="M359.4,222.2h-12.3l-3.2,7h-4.7l14.2-30.4l13.7,30.4h-4.7L359.4,222.2z M357.6,218.1l-4.2-9.7l-4.5,9.7H357.6
			z"/>
	</g>
</g>
</svg>
